<?xml version="1.0" standalone="no"?>
<!DOCTYPE svg PUBLIC "-//W3C//DTD SVG 20010904//EN"
 "http://www.w3.org/TR/2001/REC-SVG-20010904/DTD/svg10.dtd">
<svg version="1.0" xmlns="http://www.w3.org/2000/svg"
 width="2519.000000pt" height="648.000000pt" viewBox="0 0 2519.000000 648.000000"
 preserveAspectRatio="xMidYMid meet">

<g transform="translate(0.000000,648.000000) scale(0.100000,-0.100000)" stroke="none">
<path fill="#059669" d="M178 6463 c-87 -2 -158 -7 -158 -11 0 -5 58 -186 129 -403 71 -217
419 -1283 774 -2369 355 -1086 659 -2007 675 -2047 44 -109 112 -179 222 -232
l55 -26 1148 -3 1147 -2 0 1865 0 1865 -1276 2 -1275 3 -165 498 c-90 273
-171 512 -180 530 -58 113 -168 229 -266 278 -120 60 -178 64 -830 52z m2922
-3218 l0 -815 -302 2 -301 3 -178 535 c-97 294 -218 660 -267 813 l-89 277
568 0 569 0 0 -815z"/>
<path fill="#363749" d="M9230 3290 l0 -2380 435 0 435 0 0 195 c0 107 3 195 8 194 4 0 27
-24 51 -52 177 -211 441 -354 751 -408 135 -24 398 -29 525 -10 332 50 610
187 861 424 408 386 600 895 563 1499 -23 375 -142 702 -362 993 -81 107 -252
276 -361 358 -184 137 -425 238 -657 278 -108 18 -150 21 -324 16 -220 -6
-324 -23 -482 -78 -188 -66 -336 -162 -482 -313 -46 -47 -85 -86 -87 -86 -2 0
-4 394 -4 875 l0 875 -435 0 -435 0 0 -2380z m2029 255 c161 -34 308 -109 425
-217 139 -128 225 -270 272 -453 23 -86 27 -122 27 -255 1 -198 -24 -321 -96
-465 -61 -123 -184 -265 -297 -342 -236 -160 -570 -205 -855 -116 -317 100
-555 373 -614 704 -52 293 8 586 162 795 188 256 468 383 806 368 57 -3 134
-11 170 -19z"/>
<path fill="#059669" d="M4340 5102 c-7 -3 -10 -631 -10 -1868 l0 -1865 1033 3 c1147 4 1087
0 1138 71 19 26 78 188 183 505 86 257 156 470 156 475 0 4 -328 7 -730 7
l-730 0 0 175 0 175 791 2 792 3 239 720 c468 1413 450 1355 445 1410 -5 65
-33 121 -79 158 l-36 29 -1591 2 c-875 0 -1595 0 -1601 -2z m1910 -1050 c0 -4
-31 -86 -69 -182 l-68 -175 -367 -3 -366 -2 0 185 0 185 435 0 c239 0 435 -4
435 -8z"/>
<path fill="#363749" d="M14800 4385 c-428 -65 -781 -252 -1052 -560 -218 -247 -349 -522
-415 -870 -20 -108 -29 -455 -14 -581 51 -435 216 -773 523 -1070 276 -267
610 -419 1043 -475 117 -14 445 -15 560 0 409 53 736 205 995 461 87 86 219
246 209 254 -2 1 -161 93 -353 204 l-350 201 -53 -59 c-159 -175 -371 -265
-653 -277 -496 -21 -833 161 -979 530 -17 43 -31 84 -31 92 0 13 159 15 1280
15 704 0 1280 1 1280 3 0 1 7 52 15 112 60 450 -46 935 -280 1285 -259 386
-621 631 -1062 721 -140 29 -513 36 -663 14z m554 -803 c279 -85 467 -265 555
-528 17 -51 31 -99 31 -108 0 -15 -78 -16 -865 -16 -476 0 -865 1 -865 3 0 2
7 28 16 58 91 307 312 523 609 592 109 25 110 26 285 22 132 -2 179 -7 234
-23z"/>
<path fill="#363749" d="M18600 4380 c-328 -60 -608 -215 -860 -477 -143 -148 -231 -271 -315
-438 -291 -580 -254 -1343 91 -1873 128 -197 318 -393 499 -514 295 -198 627
-284 992 -258 376 27 654 148 891 388 l92 94 0 -196 0 -196 440 0 440 0 0
1700 0 1700 -440 0 -440 0 0 -201 0 -201 -50 59 c-167 198 -418 341 -708 404
-144 31 -485 36 -632 9z m670 -836 c285 -59 547 -279 650 -547 52 -133 65
-214 64 -392 0 -109 -5 -183 -16 -230 -81 -356 -346 -621 -701 -702 -50 -11
-118 -16 -227 -16 -134 0 -168 4 -252 26 -319 84 -559 325 -646 646 -23 86
-26 115 -26 276 -1 154 3 193 22 268 94 375 394 640 777 687 90 11 259 3 355
-16z"/>
<path fill="#363749" d="M22980 4385 c-430 -65 -777 -250 -1053 -562 -293 -330 -437 -730
-437 -1213 0 -337 58 -590 197 -861 159 -311 449 -596 758 -744 177 -85 396
-147 620 -176 117 -14 445 -15 560 0 409 53 736 204 995 461 87 86 219 246
209 254 -2 1 -161 93 -352 204 l-349 200 -65 -69 c-160 -169 -365 -254 -643
-266 -498 -21 -833 161 -981 534 -16 41 -29 80 -29 88 0 13 159 15 1279 15
l1279 0 5 28 c32 163 34 503 2 677 -52 293 -161 553 -322 770 -88 119 -276
305 -388 384 -173 121 -398 217 -622 262 -140 29 -513 36 -663 14z m545 -800
c123 -35 262 -110 359 -196 94 -83 206 -288 231 -422 l7 -37 -866 0 c-476 0
-866 2 -866 4 0 17 56 169 81 219 111 222 303 374 544 430 109 25 110 26 285
22 117 -2 183 -8 225 -20z"/>
<path fill="#059669" d="M2351 1065 c-100 -28 -175 -71 -245 -141 -150 -151 -194 -360 -117
-559 52 -136 158 -242 296 -297 73 -30 90 -32 190 -32 100 0 117 2 190 32 137
55 243 160 297 297 30 73 32 90 32 190 0 100 -2 117 -32 190 -78 197 -256 323
-467 331 -60 3 -108 -1 -144 -11z"/>
<path fill="#059669" d="M5561 1065 c-100 -28 -175 -71 -245 -141 -150 -151 -194 -360 -117
-559 52 -136 158 -242 296 -297 73 -30 90 -32 190 -32 100 0 117 2 190 32 137
55 243 160 297 297 30 73 32 90 32 190 0 100 -2 117 -32 190 -78 197 -256 323
-467 331 -60 3 -108 -1 -144 -11z"/>
</g>
</svg>
