<?xml version="1.0" standalone="no"?>
<!DOCTYPE svg PUBLIC "-//W3C//DTD SVG 20010904//EN"
 "http://www.w3.org/TR/2001/REC-SVG-20010904/DTD/svg10.dtd">
<svg version="1.0" xmlns="http://www.w3.org/2000/svg"
 width="3359.000000pt" height="3359.000000pt" viewBox="0 0 3359.000000 3359.000000"
 preserveAspectRatio="xMidYMid meet">
<metadata>
Created by potrace 1.14, written by Peter Selinger 2001-2017
</metadata>
<g transform="translate(0.000000,3359.000000) scale(0.100000,-0.100000)"
fill="#000000" stroke="none">
<path d="M487 21104 c-1 -1 -99 -5 -217 -8 -253 -8 -240 -7 -240 -19 0 -6 26
-90 57 -186 31 -97 57 -178 58 -181 0 -3 11 -35 23 -71 12 -36 24 -74 27 -85
2 -10 13 -43 24 -72 11 -29 20 -55 21 -57 0 -3 2 -10 5 -17 60 -183 107 -332
109 -341 1 -7 4 -16 8 -22 5 -9 77 -231 84 -260 1 -5 19 -57 39 -115 20 -58
37 -112 39 -120 2 -8 14 -46 27 -85 13 -38 24 -72 24 -75 1 -3 4 -12 8 -20 3
-8 35 -107 72 -220 36 -113 69 -212 72 -220 3 -8 7 -19 8 -25 1 -5 3 -13 5
-17 1 -5 3 -11 4 -15 1 -5 8 -28 17 -53 9 -25 33 -97 54 -160 20 -63 39 -122
42 -130 4 -8 7 -17 8 -20 0 -3 18 -59 40 -125 21 -66 39 -122 40 -125 1 -7 45
-141 52 -160 3 -8 7 -19 9 -25 1 -5 23 -73 49 -150 25 -77 48 -147 50 -155 2
-8 36 -112 75 -230 39 -118 73 -219 74 -225 2 -5 6 -17 9 -25 7 -20 109 -332
112 -345 1 -5 5 -17 8 -25 10 -24 59 -174 62 -190 2 -8 11 -32 19 -52 9 -21
16 -40 16 -43 0 -3 0 -6 1 -7 0 -2 2 -10 4 -18 2 -8 13 -42 25 -75 12 -33 24
-71 26 -84 3 -14 8 -29 12 -35 3 -6 7 -15 8 -21 4 -22 76 -242 89 -270 7 -16
16 -46 20 -65 4 -19 11 -39 15 -45 4 -5 11 -23 15 -40 5 -16 9 -34 11 -40 1
-5 26 -77 54 -160 28 -82 52 -157 54 -165 5 -19 35 -110 43 -130 3 -8 7 -19 8
-25 6 -24 207 -632 215 -650 5 -11 16 -40 24 -65 40 -126 92 -217 156 -278 45
-43 129 -98 194 -126 51 -22 55 -22 611 -25 308 -1 565 -2 570 -2 6 0 46 0 90
0 44 1 133 0 198 -1 64 -2 117 0 117 4 0 4 6 5 13 3 20 -8 237 -11 237 -3 0 4
6 5 14 2 20 -8 227 -10 232 -3 2 4 19 4 36 0 43 -8 262 -6 277 3 6 4 11 4 11
-1 0 -4 33 -7 73 -6 87 4 41 4 360 0 l267 -2 0 195 c2 1969 0 4773 -2 4776 -2
2 -765 5 -1696 7 -1024 2 -1696 7 -1701 13 -7 7 -43 104 -46 124 -1 9 -106
324 -115 345 -10 25 -71 207 -74 220 -3 13 -36 115 -43 135 -4 8 -7 17 -7 20
-6 27 -165 490 -179 520 -6 14 -20 35 -31 48 -11 12 -16 22 -13 22 13 0 -91
125 -150 180 -74 69 -122 102 -198 136 -76 33 -104 40 -225 50 -56 5 -589 12
-593 8z m3644 -3229 c4 -78 3 -2139 -2 -2146 -3 -5 -166 -7 -395 -5 -455 5
-411 3 -411 19 -1 6 -22 73 -48 147 -25 74 -47 140 -49 145 -7 30 -119 363
-127 377 -5 10 -9 26 -9 36 0 10 -3 22 -7 26 -4 3 -8 12 -9 19 -1 7 -16 55
-34 107 -17 52 -33 100 -34 105 -1 6 -4 15 -7 20 -4 6 -21 57 -38 115 -18 58
-36 114 -41 125 -9 21 -88 259 -94 285 -2 8 -11 35 -20 60 -9 25 -19 53 -21
63 -3 9 -7 25 -10 35 -6 23 -84 261 -94 287 -5 11 -19 54 -31 95 -12 41 -25
80 -27 87 -3 6 6 13 19 15 13 2 353 3 756 3 725 0 732 0 733 -20z"/>
<path d="M12305 16873 c0 -2807 2 -3169 15 -3174 8 -3 269 -5 580 -5 l565 1 1
155 c3 237 7 360 14 360 4 0 21 -17 39 -37 103 -117 247 -253 269 -253 5 0 12
-4 14 -8 16 -41 336 -206 478 -247 257 -76 359 -89 680 -89 235 0 320 5 320
17 0 5 4 6 8 3 7 -4 82 11 237 48 20 5 121 38 140 46 11 5 60 25 108 45 49 21
107 48 130 60 23 13 65 36 92 51 28 14 52 29 55 33 3 4 35 25 71 49 36 23 80
54 97 70 17 15 49 41 69 57 21 17 69 59 107 95 90 86 83 78 146 150 30 34 65
73 78 86 12 13 22 28 22 33 0 5 8 16 18 23 9 7 22 21 27 30 6 9 25 37 43 62
17 26 32 51 32 57 0 5 3 9 8 9 4 0 16 17 27 38 11 20 23 39 26 42 6 5 112 209
115 220 0 3 9 23 19 45 28 63 38 89 41 105 2 8 10 30 18 50 14 31 63 197 71
239 2 9 4 16 5 16 1 0 3 11 5 25 2 14 8 52 14 85 26 146 22 118 37 290 11 137
5 418 -12 535 -3 19 -7 51 -8 70 -2 19 -9 59 -15 89 -6 29 -8 57 -5 62 3 5 0
9 -5 9 -6 0 -10 3 -9 8 1 4 -2 25 -7 47 -5 22 -9 42 -9 45 -5 24 -30 109 -36
125 -4 11 -20 56 -35 100 -15 44 -38 105 -52 135 -44 97 -87 185 -92 190 -3 3
-17 25 -30 50 -54 100 -173 269 -245 349 -46 51 -246 250 -296 294 -59 53
-196 153 -265 193 -107 63 -402 194 -435 194 -5 0 -21 5 -37 12 -34 14 -40 15
-78 23 -16 3 -55 12 -85 20 -30 8 -77 17 -105 21 -27 3 -70 9 -95 13 -78 11
-501 2 -590 -13 -14 -3 -43 -7 -65 -10 -36 -5 -83 -14 -110 -20 -90 -23 -191
-56 -292 -96 -46 -18 -83 -36 -83 -40 0 -4 -6 -7 -13 -7 -11 0 -50 -22 -172
-96 -10 -7 -25 -16 -31 -22 -7 -5 -33 -26 -58 -45 -26 -19 -99 -86 -163 -148
-65 -62 -122 -117 -129 -123 -13 -11 -15 138 -16 1474 l-1 847 -581 0 -581 0
0 -3167z m2560 353 c95 -9 181 -24 235 -43 25 -8 50 -16 55 -17 54 -11 193
-78 270 -129 137 -91 258 -210 348 -342 26 -38 47 -76 47 -82 0 -7 4 -13 8
-13 5 0 19 -24 31 -52 27 -61 63 -153 61 -153 -1 0 3 -12 8 -26 6 -14 12 -39
15 -55 3 -16 11 -51 18 -79 15 -56 19 -385 6 -499 -18 -167 -84 -344 -180
-489 -22 -34 -46 -67 -51 -74 -6 -6 -22 -26 -36 -44 -27 -35 -131 -141 -171
-174 -144 -119 -376 -223 -562 -250 -17 -3 -57 -8 -87 -13 -64 -10 -274 -8
-340 3 -25 4 -54 8 -65 9 -11 2 -31 6 -45 11 -14 4 -32 9 -40 10 -39 4 -91 18
-96 26 -3 5 -12 9 -19 9 -8 0 -40 12 -72 26 -32 15 -64 28 -71 30 -8 1 -22 10
-31 18 -10 9 -21 16 -24 16 -8 0 -94 59 -152 104 -41 32 -121 111 -166 162
-67 78 -191 292 -204 351 -2 10 -11 35 -19 56 -9 20 -14 37 -11 37 4 0 3 6 -2
13 -4 6 -8 17 -9 22 -1 6 -6 35 -12 65 -6 30 -14 73 -18 95 -8 48 -13 326 -6
339 2 4 6 27 7 50 1 22 8 68 15 101 7 33 14 67 15 75 2 8 4 16 5 18 2 1 4 7 5
12 1 6 4 13 5 18 1 4 3 12 4 17 1 6 8 24 15 40 7 17 18 47 24 68 7 20 15 37
18 37 4 0 9 10 13 23 6 24 49 103 88 161 43 65 149 180 226 246 37 32 189 135
201 135 3 1 33 14 66 29 64 30 159 63 209 72 43 8 61 12 61 14 0 3 39 8 120
15 44 4 81 8 82 9 3 3 143 -2 208 -8z"/>
<path d="M5792 19275 c-4 -5 -8 -44 -10 -85 -4 -112 -10 -4863 -5 -4875 2 -7
189 -10 551 -8 301 1 549 2 552 3 3 2 10 1 15 0 18 -5 176 -1 185 5 5 3 11 2
14 -3 2 -4 24 -7 48 -6 73 4 120 5 193 4 39 0 293 2 565 4 713 7 712 7 766 92
19 29 34 55 34 58 0 3 5 17 12 33 6 15 12 33 14 38 5 20 94 267 98 274 3 4 7
18 10 32 3 13 19 62 36 109 17 47 32 90 33 95 5 17 28 89 34 105 3 8 7 20 9
25 1 6 41 127 88 269 48 143 84 262 81 265 -8 7 -313 10 -1191 11 l-750 0 0
233 1 232 386 1 c212 0 391 4 397 8 6 3 13 3 15 -2 3 -4 32 -6 64 -4 32 2 63
3 68 3 6 0 35 0 65 -1 30 0 63 0 73 0 9 0 49 0 88 -1 38 0 73 1 75 4 3 3 18 2
33 -3 16 -4 33 -5 40 -1 6 4 34 5 61 1 27 -3 51 -3 52 1 2 5 20 4 40 0 20 -5
39 -6 42 -4 3 3 141 6 306 6 296 0 302 1 310 21 8 20 16 43 19 58 1 4 13 38
27 75 14 38 27 75 29 83 1 8 13 42 24 75 12 33 24 71 27 84 3 14 8 29 12 35 3
6 7 17 8 24 2 8 6 21 10 30 4 9 9 24 11 32 2 8 5 22 8 30 2 8 4 16 5 18 2 1 3
5 5 10 1 4 5 14 8 22 4 8 18 51 32 95 14 44 28 87 32 95 3 8 7 22 9 31 2 9 9
29 16 45 6 16 13 36 14 44 1 8 28 89 59 180 31 91 58 170 59 175 1 6 42 129
90 274 49 146 89 270 90 275 1 6 5 17 9 23 5 7 10 21 12 30 1 10 13 47 25 83
12 36 23 70 25 75 1 6 5 17 8 25 10 26 48 144 52 164 2 10 9 24 16 32 6 8 9
14 5 14 -3 0 0 16 8 35 9 20 15 37 16 40 1 6 9 31 16 53 4 9 8 24 9 32 1 8 16
56 33 105 36 108 56 177 54 188 -1 4 2 7 6 7 9 0 13 32 13 119 0 84 -41 171
-105 220 l-45 35 -2121 1 c-1422 0 -2124 -3 -2128 -10z m2478 -1389 c25 -2 51
-4 59 -5 9 -1 10 -5 4 -13 -13 -17 -58 -141 -55 -150 1 -5 -3 -8 -8 -8 -5 0
-10 -8 -10 -18 0 -10 -3 -22 -7 -26 -4 -3 -8 -12 -9 -19 -5 -22 -68 -182 -84
-211 l-16 -30 -485 -3 -485 -3 0 242 c0 134 3 245 7 248 8 6 1018 2 1089 -4z"/>
<path d="M19976 18343 c-1 -1 -49 -4 -107 -7 -57 -2 -104 -5 -104 -6 0 -1 -16
-3 -35 -5 -35 -3 -64 -8 -110 -19 -14 -3 -38 -8 -55 -11 -67 -13 -81 -16 -95
-22 -8 -3 -19 -7 -25 -8 -5 -2 -30 -8 -55 -16 -25 -7 -49 -13 -55 -15 -69 -14
-455 -187 -475 -213 -3 -3 -21 -15 -40 -25 -19 -11 -39 -23 -45 -28 -5 -4 -48
-36 -95 -70 -107 -80 -128 -97 -217 -184 -40 -39 -75 -68 -78 -66 -3 3 -5 0
-5 -7 0 -7 -12 -25 -27 -40 -86 -88 -211 -257 -287 -391 -81 -142 -86 -151
-86 -164 0 -8 -7 -19 -15 -26 -9 -7 -13 -15 -11 -18 3 -3 -1 -17 -9 -31 -15
-25 -36 -76 -40 -96 -2 -5 -15 -44 -30 -85 -14 -41 -28 -83 -30 -93 -2 -10
-13 -50 -23 -90 -18 -67 -35 -139 -37 -162 -1 -5 -4 -27 -8 -47 -5 -21 -11
-73 -14 -115 -8 -113 -8 -620 1 -673 4 -25 12 -72 18 -105 6 -33 12 -69 13
-80 2 -12 10 -50 20 -85 9 -36 18 -74 20 -85 8 -59 113 -332 158 -414 10 -19
31 -58 45 -85 15 -28 30 -55 34 -61 5 -5 33 -48 64 -94 30 -46 83 -118 117
-160 60 -74 238 -257 305 -314 72 -61 201 -157 211 -157 6 0 11 -4 11 -10 0
-5 4 -10 9 -10 6 0 30 -13 54 -30 25 -16 50 -30 56 -30 6 0 11 -4 11 -9 0 -8
21 -17 44 -19 5 0 12 -4 15 -9 5 -7 98 -56 111 -58 3 -1 23 -9 45 -19 67 -30
165 -65 165 -60 0 2 10 -2 23 -10 12 -8 33 -17 47 -20 14 -2 52 -12 85 -21 33
-10 74 -19 90 -22 17 -2 37 -7 45 -10 8 -4 26 -8 40 -9 14 -2 45 -8 70 -14
111 -25 238 -34 525 -34 237 -1 379 5 445 18 14 3 41 8 60 10 19 3 42 7 50 9
8 2 33 7 55 12 22 4 74 16 115 27 41 11 81 22 90 23 8 2 15 4 15 5 0 1 7 3 15
5 40 8 228 84 320 128 124 59 334 199 439 292 92 81 214 208 291 305 19 24 40
48 45 54 23 24 45 67 40 76 -3 5 -18 15 -33 23 -25 13 -116 65 -152 87 -78 46
-146 85 -150 85 -3 0 -23 12 -45 26 -22 14 -47 29 -55 32 -8 4 -33 18 -55 32
-22 14 -50 29 -62 35 -11 5 -24 14 -28 20 -3 5 -11 8 -16 5 -5 -4 -9 -2 -9 3
0 5 -8 12 -17 16 -10 3 -31 14 -48 23 -114 69 -181 106 -184 104 -2 -1 -7 1
-10 6 -3 4 -19 15 -35 24 l-29 17 -96 -97 c-53 -54 -123 -115 -156 -137 -33
-21 -61 -42 -63 -46 -2 -5 -12 -8 -23 -8 -10 0 -19 -4 -19 -9 0 -10 -121 -62
-214 -90 -68 -21 -83 -24 -160 -36 -21 -4 -48 -9 -60 -11 -70 -14 -244 -18
-391 -9 -55 4 -117 8 -137 8 -21 1 -38 5 -38 8 0 3 -13 6 -29 7 -17 0 -38 5
-49 11 -11 6 -22 8 -24 5 -7 -7 -210 62 -251 85 -19 11 -38 17 -41 14 -3 -4
-6 -1 -6 5 0 7 -5 12 -10 12 -14 0 -124 70 -128 81 -2 5 -8 9 -13 9 -11 0 -88
68 -124 108 -11 13 -35 39 -52 59 -18 20 -33 41 -33 45 0 5 -9 18 -20 30 -38
41 -150 287 -150 330 0 9 8 17 18 17 146 5 1198 11 2165 12 l1227 1 1 22 c0
11 2 28 4 36 12 54 26 183 31 288 2 45 6 87 9 92 3 6 1 10 -5 10 -7 0 -8 6 -1
19 6 10 9 20 7 22 -2 2 -7 60 -10 129 -3 69 -8 136 -10 150 -3 14 -7 45 -10
70 -3 25 -10 70 -16 100 -6 30 -11 62 -11 70 -1 8 -6 33 -11 55 -6 22 -12 51
-14 65 -3 14 -7 32 -11 40 -3 8 -8 23 -10 33 -1 10 -13 48 -25 85 -12 37 -22
69 -23 72 0 3 -3 10 -6 15 -4 6 -12 28 -19 50 -21 64 -92 216 -150 320 -37 67
-147 230 -164 244 -9 7 -16 17 -16 21 0 14 -164 196 -237 264 -25 22 -55 50
-67 61 -69 66 -257 199 -351 249 -27 15 -57 31 -65 37 -32 20 -188 89 -202 89
-8 0 -18 4 -23 9 -15 14 -196 71 -206 65 -5 -3 -9 -1 -9 4 0 8 -48 21 -102 27
-9 1 -24 5 -33 9 -23 8 -111 20 -162 20 -24 1 -43 3 -43 6 0 8 -447 20 -454
13z m414 -1068 c14 -3 36 -8 50 -11 97 -19 251 -89 370 -170 74 -50 240 -206
240 -225 0 -4 6 -14 13 -21 19 -20 73 -109 98 -165 30 -65 89 -233 82 -233 -3
0 -1 -6 5 -13 22 -26 -4 -39 -84 -43 -44 -3 -92 -5 -109 -7 -16 -1 -40 1 -53
5 -13 5 -21 5 -19 0 6 -9 -1936 -8 -1951 2 -7 4 -12 4 -12 -1 0 -4 -15 -7 -32
-7 -26 1 -33 5 -31 20 4 33 10 58 17 76 4 9 9 22 10 30 1 7 10 30 19 52 9 21
17 44 17 51 0 7 6 18 14 24 8 7 18 25 21 41 3 16 13 34 21 41 8 6 14 16 14 22
0 5 11 25 25 43 14 18 25 36 25 39 0 4 6 12 13 20 6 7 35 40 62 72 28 33 80
84 117 114 37 30 74 59 81 66 51 43 277 143 362 159 11 2 49 10 85 18 49 11
119 14 285 11 121 -2 231 -7 245 -10z"/>
<path d="M25067 18344 c-1 -1 -47 -4 -102 -8 -87 -5 -154 -15 -280 -41 -30 -6
-177 -51 -205 -62 -8 -3 -17 -7 -20 -7 -34 -7 -284 -126 -288 -137 -2 -5 -8
-9 -14 -9 -12 0 -174 -104 -195 -126 -8 -8 -17 -14 -21 -14 -4 0 -24 -15 -44
-33 -20 -17 -58 -50 -84 -72 -56 -47 -188 -179 -249 -250 -75 -86 -145 -173
-145 -180 0 -4 -10 -16 -22 -26 -11 -11 -18 -19 -14 -19 4 0 -4 -15 -18 -33
-15 -19 -26 -38 -26 -42 0 -5 -6 -16 -14 -24 -17 -20 -123 -226 -155 -301 -12
-30 -27 -64 -31 -75 -22 -51 -76 -229 -96 -317 -2 -10 -6 -28 -9 -40 -3 -13
-7 -36 -10 -53 -2 -16 -7 -41 -10 -55 -3 -14 -8 -43 -11 -65 -2 -22 -6 -53 -9
-70 -27 -178 -22 -548 8 -715 4 -19 9 -53 12 -75 3 -22 7 -47 10 -55 2 -8 6
-26 9 -40 6 -30 11 -50 26 -110 17 -69 18 -75 20 -77 2 -2 3 -6 4 -10 1 -5 5
-14 9 -20 5 -7 6 -13 3 -13 -5 0 42 -138 63 -185 5 -11 20 -45 33 -75 21 -50
39 -87 105 -209 12 -25 30 -52 38 -61 8 -9 15 -20 15 -24 0 -4 8 -18 18 -31 9
-12 24 -33 32 -45 91 -138 340 -406 486 -522 174 -138 414 -270 622 -342 56
-19 102 -33 102 -30 0 2 16 -3 37 -11 20 -8 38 -13 41 -11 2 3 15 0 29 -5 14
-5 42 -12 62 -15 20 -3 50 -8 66 -11 36 -6 73 -10 180 -18 214 -17 459 1 655
47 47 11 92 21 100 23 17 4 107 33 130 42 8 4 17 7 20 7 18 3 146 61 148 68 2
4 10 8 18 8 8 0 40 16 70 35 30 19 57 35 60 35 2 0 10 4 17 10 7 5 50 38 96
72 47 34 136 113 199 175 63 62 115 113 116 113 0 0 1 -109 1 -242 -1 -134 1
-250 3 -258 3 -14 69 -16 588 -16 l584 0 0 2266 0 2265 -582 -1 c-321 -1 -585
-2 -588 -3 -3 0 -5 -116 -5 -257 0 -140 -2 -257 -5 -259 -4 -2 -26 21 -50 51
-49 61 -189 195 -245 234 -20 14 -42 30 -48 35 -11 10 -54 37 -112 72 -47 28
-210 105 -263 124 -31 11 -64 23 -72 26 -8 4 -18 7 -22 8 -5 2 -10 4 -13 5 -3
1 -9 4 -15 5 -5 1 -11 3 -12 4 -2 2 -14 4 -28 7 -14 2 -36 8 -50 13 -14 5 -43
13 -65 17 -22 4 -47 9 -55 11 -59 13 -522 36 -533 27z m443 -1118 c52 -3 105
-8 116 -10 12 -2 39 -7 60 -11 240 -38 553 -233 708 -441 17 -21 33 -41 36
-44 3 -3 20 -28 37 -55 68 -107 146 -304 159 -401 3 -27 9 -58 11 -69 7 -26
11 -437 5 -449 -3 -5 -7 -28 -8 -50 -4 -43 -41 -175 -67 -238 -9 -21 -13 -38
-9 -38 4 0 3 -4 -3 -8 -5 -4 -26 -38 -44 -77 -19 -38 -39 -74 -43 -80 -5 -5
-31 -41 -59 -80 -148 -201 -350 -346 -602 -430 -134 -45 -178 -50 -432 -50
-189 0 -219 3 -299 24 -49 13 -110 32 -135 42 -25 9 -62 23 -81 31 -19 7 -37
15 -40 18 -3 3 -18 12 -35 20 -32 16 -133 81 -169 109 -48 37 -226 222 -226
235 0 8 -4 16 -9 18 -19 7 -140 218 -125 218 4 0 1 6 -6 14 -13 17 -70 190
-70 216 0 9 -3 20 -7 23 -3 4 -7 31 -9 59 -1 29 -3 53 -4 53 -1 0 -2 82 -3
183 -1 100 0 182 3 182 3 0 6 22 7 49 1 26 9 77 18 112 9 35 18 71 20 79 5 27
63 166 84 203 12 20 30 54 42 75 12 20 27 44 35 53 8 8 14 18 14 21 0 18 181
205 246 255 54 42 157 103 225 135 63 30 205 76 258 84 20 3 39 8 42 10 3 2
41 6 85 10 43 4 80 7 81 8 3 2 72 -1 193 -8z"/>
<path d="M30867 18344 c-1 -1 -45 -4 -97 -8 -141 -8 -271 -29 -386 -62 -28 -8
-60 -16 -70 -18 -57 -12 -308 -106 -384 -145 -97 -50 -274 -156 -307 -185 -33
-29 -43 -36 -48 -36 -4 0 -12 -6 -19 -12 -7 -7 -33 -29 -57 -48 -96 -78 -315
-306 -368 -384 -8 -12 -17 -23 -21 -26 -10 -9 -107 -155 -130 -195 -63 -112
-110 -205 -103 -205 5 0 3 -4 -3 -8 -18 -11 -120 -282 -107 -282 3 0 0 -6 -6
-14 -6 -8 -11 -18 -10 -22 1 -5 0 -16 -3 -24 -17 -45 -34 -118 -44 -184 -3
-22 -7 -43 -9 -46 -2 -4 -7 -38 -10 -76 -4 -38 -9 -72 -10 -75 -16 -26 -23
-400 -10 -564 10 -136 10 -141 20 -190 5 -22 9 -49 10 -60 6 -71 57 -264 102
-385 31 -86 168 -378 182 -390 3 -3 12 -17 20 -32 8 -16 18 -28 23 -28 4 0 8
-5 8 -10 0 -6 12 -28 28 -49 15 -21 34 -49 42 -61 8 -12 23 -32 33 -43 10 -12
31 -37 45 -56 15 -19 52 -61 83 -93 30 -32 55 -59 54 -61 0 -1 9 -12 22 -24
13 -12 23 -21 23 -20 0 2 28 -23 63 -56 34 -32 98 -86 142 -118 44 -33 88 -67
97 -74 9 -8 30 -21 47 -29 16 -9 35 -21 43 -28 18 -18 241 -129 313 -157 33
-12 69 -26 80 -31 11 -4 54 -18 95 -30 41 -12 82 -25 90 -28 8 -3 20 -6 25 -7
6 -2 29 -8 53 -14 24 -7 55 -14 70 -17 15 -2 74 -13 132 -24 127 -23 200 -32
306 -34 44 -2 86 -6 92 -10 7 -4 12 -4 12 1 0 4 84 8 188 8 179 1 333 9 363
19 8 3 33 7 55 10 23 3 59 9 80 15 22 6 57 13 79 17 22 3 43 8 48 11 4 2 17 6
30 8 54 10 259 82 344 121 17 8 33 14 35 14 8 0 233 123 238 130 3 4 16 13 29
20 14 7 30 17 35 21 6 5 38 29 71 54 141 106 328 290 420 414 14 19 28 37 32
40 5 3 16 20 25 37 17 31 17 32 -5 46 -12 8 -29 18 -37 21 -8 4 -37 21 -65 37
-27 17 -61 36 -75 43 -14 6 -27 14 -30 17 -3 3 -16 11 -30 19 -14 8 -63 37
-110 64 -47 27 -105 61 -130 75 -25 13 -71 40 -103 58 -32 19 -62 34 -68 34
-5 0 -9 5 -9 10 0 6 -7 10 -15 10 -8 0 -15 5 -15 10 0 6 -6 10 -12 10 -7 0
-58 26 -113 58 l-100 58 -92 -92 c-89 -90 -223 -194 -249 -194 -7 0 -14 -4
-16 -8 -7 -18 -192 -91 -273 -108 -11 -2 -30 -6 -42 -9 -13 -3 -31 -7 -40 -9
-33 -7 -118 -17 -188 -22 -77 -6 -75 -6 -125 -5 -19 1 -42 1 -50 0 -47 -1
-204 11 -255 20 -33 6 -73 13 -90 16 -58 10 -71 13 -165 45 -85 29 -227 94
-240 110 -3 4 -20 15 -37 25 -18 11 -33 23 -33 27 0 4 -6 8 -12 8 -38 1 -231
222 -271 310 -4 8 -17 31 -28 50 -19 31 -92 219 -86 221 26 8 110 11 467 15
234 2 993 4 1687 4 695 0 1262 3 1261 8 -1 4 2 26 6 49 34 184 39 585 10 808
-7 59 -31 182 -49 250 -8 33 -18 71 -21 85 -2 14 -11 42 -19 63 -8 20 -15 46
-15 57 0 11 -4 20 -10 20 -5 0 -10 10 -10 23 0 13 -3 27 -7 31 -5 4 -8 11 -8
14 -1 18 -54 139 -108 242 -33 63 -65 125 -71 137 -6 13 -14 23 -18 23 -5 0
-8 5 -8 10 0 12 -40 71 -55 82 -7 5 -7 8 0 8 6 0 6 3 -1 8 -5 4 -23 25 -39 47
-16 22 -36 48 -45 57 -8 10 -31 36 -50 58 -83 97 -333 340 -350 340 -5 0 -10
4 -12 8 -4 9 -129 99 -169 122 -85 47 -289 148 -289 143 0 -3 -6 -1 -12 4 -7
6 -31 16 -53 23 -22 7 -44 16 -50 20 -5 5 -12 8 -15 8 -9 0 -125 34 -135 40
-5 4 -14 7 -20 8 -5 1 -53 11 -105 22 -52 12 -122 23 -155 26 -33 3 -60 5 -60
6 0 5 -482 19 -488 14z m426 -1068 c20 -3 41 -7 45 -10 5 -3 23 -8 41 -11 82
-14 337 -143 397 -199 6 -6 22 -18 34 -26 30 -20 69 -59 105 -105 17 -21 36
-44 43 -51 6 -7 12 -15 12 -19 0 -3 11 -22 23 -43 13 -20 32 -50 43 -67 10
-16 19 -32 19 -35 1 -3 8 -19 18 -37 16 -31 58 -138 58 -148 0 -2 6 -23 14
-45 8 -22 12 -40 9 -40 -2 0 0 -9 5 -19 8 -13 7 -21 -2 -28 -8 -6 -1763 -9
-1882 -3 -5 1 -45 0 -88 -2 -43 -2 -83 0 -89 3 -6 4 -22 3 -35 -2 -15 -5 -23
-5 -23 2 0 6 -7 6 -17 2 -20 -9 -70 -9 -79 0 -3 3 -16 2 -28 -3 -23 -8 -56 3
-56 20 0 5 5 21 12 37 6 15 12 35 14 44 2 9 17 47 34 85 17 38 31 70 31 71 -2
15 68 141 109 194 145 190 284 295 492 373 168 62 253 75 493 70 116 -2 227
-6 248 -8z"/>
<path d="M3185 13911 c-3 -2 -13 -5 -23 -6 -35 -3 -70 -16 -167 -61 -75 -34
-115 -63 -185 -134 -52 -51 -120 -140 -120 -155 0 -4 -9 -20 -21 -37 -12 -16
-18 -32 -15 -35 3 -3 2 -11 -3 -17 -8 -9 -21 -50 -38 -116 -7 -24 -6 -223 0
-250 37 -155 89 -259 179 -356 87 -95 256 -191 365 -209 39 -6 247 -8 273 -2
64 14 89 22 135 42 122 55 203 117 285 220 43 55 109 173 113 206 2 8 5 19 9
24 21 35 27 282 8 358 -16 60 -54 155 -72 176 -7 9 -20 30 -28 46 -19 38 -174
195 -194 195 -8 0 -16 4 -18 8 -9 24 -174 87 -256 98 -51 7 -222 11 -227 5z"/>
<path d="M7440 13904 c-90 -19 -208 -72 -273 -123 -45 -34 -139 -135 -165
-174 -56 -88 -92 -174 -108 -257 -10 -51 -11 -211 -2 -216 5 -3 6 -9 3 -14 -6
-10 9 -79 24 -115 5 -11 16 -39 25 -63 47 -126 180 -270 311 -337 124 -63 178
-76 325 -75 52 0 104 1 115 1 50 -1 206 64 288 120 44 30 177 168 177 184 0 7
4 15 9 17 14 5 78 150 91 207 13 57 16 260 4 315 -9 45 -75 196 -85 196 -5 0
-9 9 -9 20 0 11 -4 20 -8 20 -5 0 -17 15 -27 33 -20 35 -145 150 -169 155 -9
2 -16 7 -16 11 0 10 -128 68 -162 75 -13 2 -35 9 -49 14 -15 6 -29 8 -32 5 -3
-3 -11 -1 -18 3 -20 12 -188 11 -249 -2z"/>
</g>
</svg>
